<svg xmlns="http://www.w3.org/2000/svg" width="24" height="24" viewBox="0 0 24 24" class="ui_icons_s1r6oc3k"><g clip-path="url(#clip0_7422_3382)"><path d="M6.01564 18.0577L4.99561 17.2645C5.00115 17.2464 5.00923 17.2207 5.02002 17.1879C5.04306 17.1178 5.07839 17.0158 5.12739 16.8884C5.22132 16.6441 5.36542 16.3066 5.56934 15.9226L7.58432 17.4881C7.37397 17.8821 7.2259 18.2286 7.12973 18.479C7.08018 18.608 7.04439 18.7115 7.02095 18.783L7.00687 18.8266L6.01564 18.0577Z" fill="#C86400"></path><path d="M5.74902 15.6014C5.96569 15.2321 6.23392 14.8352 6.56214 14.4446L8.57761 16.0107C8.25027 16.4015 7.98128 16.7983 7.76448 17.1673L5.74902 15.6014Z" fill="#D28214"></path><path d="M8.81916 15.7373L6.80444 14.1713C7.11362 13.8349 7.47169 13.5115 7.88108 13.2205L9.89325 14.7846C9.48597 15.0767 9.12946 15.4015 8.81916 15.7373Z" fill="#D29628"></path><path d="M14.9893 9.28912C15.3161 8.97828 15.6393 8.63438 15.9542 8.25049L17.9704 9.81658C17.6549 10.2015 17.3319 10.5443 17.0039 10.8543L14.9893 9.28912Z" fill="#F5D246"></path><path d="M12.0182 13.7257L10.0146 12.1698C10.519 11.9705 11.0235 11.7712 11.5188 11.5503L13.5248 13.1082C13.0286 13.3285 12.5233 13.5269 12.0182 13.7257Z" fill="#FADE6E"></path><path d="M8.21117 13.0019C8.24713 12.9794 8.28275 12.9571 8.31945 12.9348C8.69139 12.7143 9.13223 12.5232 9.62294 12.3259L11.6269 13.8819C11.1559 14.0733 10.7278 14.261 10.3621 14.4782C10.3141 14.506 10.2669 14.5361 10.221 14.5655L10.2115 14.5716L8.19995 13.009L8.21117 13.0019Z" fill="#FAAA00"></path><path d="M17.9788 4.86466C18.1653 4.43547 18.344 3.97893 18.5143 3.49316L20.5262 5.05603C20.3567 5.5423 20.1783 5.99955 19.9918 6.42888L17.9788 4.86466Z" fill="#E39205"></path><path d="M17.1663 6.48376C17.3941 6.08807 17.6144 5.66455 17.826 5.20679L19.8389 6.77102C19.6289 7.22952 19.4096 7.65359 19.182 8.04869L17.1663 6.48376Z" fill="#E5A40A"></path><path d="M13.8977 12.9384L11.8906 11.3787C12.3328 11.1678 12.7865 10.9265 13.2432 10.6404L15.2537 12.2036C14.7958 12.4883 14.3407 12.7287 13.8977 12.9384Z" fill="#FFFABA"></path><path d="M13.5657 10.4309C13.9508 10.1711 14.3364 9.87574 14.7174 9.53809L16.7316 11.1026C16.3496 11.4411 15.9629 11.7355 15.5771 11.9942L13.5657 10.4309Z" fill="#FFDC7D"></path><path d="M16.1807 7.96558C16.4548 7.60984 16.722 7.22162 16.9801 6.79907L18.9958 8.3642C18.7384 8.78816 18.4707 9.17594 18.1968 9.53136L16.1807 7.96558Z" fill="#EBB000"></path><path d="M2.97554 15.6949L1.95544 14.9033C1.96093 14.8852 1.96896 14.8595 1.97967 14.8267C2.00256 14.7567 2.03771 14.6546 2.0866 14.5271C2.18034 14.2827 2.32453 13.9448 2.52951 13.5598L4.54388 15.125C4.3329 15.52 4.18465 15.8669 4.08847 16.1175C4.03892 16.2466 4.00317 16.3502 3.97977 16.4216L3.96577 16.4651L2.97554 15.6949Z" fill="#880012"></path><path d="M2.70825 13.239C2.92435 12.8704 3.19314 12.4732 3.52139 12.0823L5.53684 13.6487C5.2095 14.0392 4.94053 14.436 4.72373 14.8046L2.70825 13.239Z" fill="#B40A1E"></path><path d="M5.77763 13.3755L3.76172 11.8099C4.07239 11.4729 4.43052 11.1494 4.83993 10.8584L6.85273 12.4225C6.44485 12.7149 6.08773 13.0395 5.77763 13.3755Z" fill="#BB001E"></path><path d="M11.948 6.92645C12.2751 6.61616 12.5983 6.27229 12.9136 5.88843L14.9297 7.45483C14.6142 7.83916 14.2915 8.18189 13.9636 8.49125L11.948 6.92645Z" fill="#D93636"></path><path d="M8.97769 11.3632L6.97363 9.80706L7.03673 9.78224C7.48897 9.60438 7.97356 9.4138 8.47804 9.18848L10.484 10.746C10.0045 10.959 9.54196 11.1411 9.10804 11.3119L8.97769 11.3632Z" fill="#FC8D8D"></path><path d="M5.15942 10.6462C5.1988 10.621 5.23814 10.5964 5.27846 10.5725C5.65085 10.3532 6.09153 10.1611 6.5813 9.96313L8.5856 11.5194C8.11506 11.7108 7.68642 11.8988 7.32171 12.1154C7.26987 12.1456 7.21967 12.1777 7.17099 12.209L5.15942 10.6462Z" fill="#E60000"></path><path d="M14.1262 4.12123C14.3538 3.72587 14.5743 3.30188 14.7845 2.84497L16.7982 4.4088C16.5876 4.86696 16.3683 5.291 16.1416 5.6861L14.1262 4.12123Z" fill="#BC001D"></path><path fill-rule="evenodd" clip-rule="evenodd" d="M10.8561 10.5757L8.8501 9.01642C9.29222 8.80599 9.74509 8.56413 10.2019 8.27832L12.2131 9.84089C11.7546 10.1262 11.3006 10.3661 10.8561 10.5757Z" fill="#FFCECE"></path><path d="M10.5247 8.06864C10.9101 7.80941 11.2959 7.51401 11.677 7.17578L13.6911 8.74084C13.3092 9.07877 12.923 9.37287 12.5367 9.63218L10.5247 8.06864Z" fill="#EB8998"></path><path d="M13.1396 5.60327C13.4135 5.24777 13.6802 4.85981 13.94 4.43701L15.9544 6.00246C15.6958 6.42599 15.4292 6.81431 15.1552 7.16938L13.1396 5.60327Z" fill="#CB0013"></path><path d="M8.03711 19.6272C8.0426 19.6092 8.05062 19.5834 8.06133 19.5506C8.08421 19.4806 8.11933 19.3786 8.16815 19.2511C8.26177 19.0067 8.40571 18.6691 8.61022 18.2844L10.6246 19.8506C10.4138 20.2449 10.2658 20.5914 10.1699 20.8418C10.1205 20.9707 10.0849 21.0742 10.0616 21.1456L10.0477 21.189L8.03711 19.6272Z" fill="#880012"></path><path d="M8.79004 17.9646C9.00669 17.5953 9.27437 17.1983 9.60314 16.8071L11.6189 18.3738C11.291 18.7638 11.0223 19.1606 10.8058 19.5292L8.79004 17.9646Z" fill="#B40A1E"></path><path d="M11.8597 18.1002L9.84448 16.534C10.1554 16.1977 10.5127 15.8738 10.9222 15.584L12.9347 17.1472C12.5269 17.4393 12.1703 17.7642 11.8597 18.1002Z" fill="#BB001E"></path><path d="M18.0303 11.6508C18.358 11.3408 18.6812 10.9967 18.9958 10.6128L21.011 12.1792C20.6957 12.5641 20.3728 12.9065 20.0448 13.2162L18.0303 11.6508Z" fill="#D93636"></path><path d="M15.0591 16.088L13.0559 14.5324L13.1647 14.4894C13.6036 14.316 14.073 14.1306 14.5611 13.9126L16.5664 15.4705C16.1046 15.6757 15.6591 15.8514 15.2396 16.0167L15.0591 16.088Z" fill="#FC8D8D"></path><path d="M11.2484 15.367C11.2854 15.3436 11.3225 15.3201 11.3607 15.2968C11.7324 15.0776 12.1735 14.8865 12.664 14.688L14.6676 16.2442C14.1971 16.4353 13.7685 16.6233 13.4038 16.8401C13.353 16.8693 13.3042 16.9002 13.2561 16.9305L13.2519 16.9331L11.2419 15.3711L11.2484 15.367Z" fill="#E60000"></path><path d="M16.9385 15.3004L14.9321 13.7411C15.3729 13.5311 15.8273 13.2898 16.2831 13.0034L18.2948 14.5656C17.8367 14.8506 17.3821 15.0905 16.9385 15.3004Z" fill="#FFCECE"></path><path d="M16.6062 12.7937C16.992 12.5333 17.3778 12.2379 17.7586 11.8999L19.7728 13.4647C19.3905 13.8035 19.0046 14.0976 18.6183 14.3563L16.6062 12.7937Z" fill="#EB8998"></path><path d="M19.2222 10.3281C19.4959 9.97187 19.7629 9.58474 20.021 9.16162L22.0366 10.7267C21.7781 11.1508 21.5115 11.5388 21.2377 11.8942L19.2222 10.3281Z" fill="#CB0013"></path></g><defs><clipPath id="clip0_7422_3382"><rect width="20.2" height="18.5" fill="white" transform="translate(1.8999 2.77002)"></rect></clipPath></defs></svg>